<svg width="285" height="134" viewBox="0 0 285 134" fill="none" xmlns="http://www.w3.org/2000/svg">
<g clip-path="url(#clip0_134_2285)">
<path d="M91.0617 17.8589C86.687 15.5959 82.0175 14.0445 77.0473 13.1988C58.5873 10.0668 40.9823 14.0795 26.9737 26.7825C13.1302 39.3339 10.0113 59.345 12.1044 76.8714C13.2717 86.6232 17.275 97.4424 24.2675 104.75C39.585 120.766 61.5235 125.607 82.7427 119.716C93.0899 116.841 100.536 110.629 107.252 102.563C121.679 85.2176 124.432 61.6954 114.12 41.8768C109.321 32.6558 100.389 22.694 91.0617 17.8589Z" stroke="#808080" stroke-width="2"/>
<path d="M176.245 33.6473C161.016 53.2675 161.028 81.0357 176.257 100.604C182.536 108.664 190.165 115.797 199.864 119.034C222.651 126.634 251.087 120.218 264.895 99.4312C273.645 86.2558 274.771 69.4059 272.501 54.4515C268.946 31.0402 248.841 14.5111 225.923 12.4756C210.689 11.1224 195.094 14.3536 184.045 24.9045C181.422 27.4124 178.821 30.3286 176.245 33.6473Z" stroke="#808080" stroke-width="2"/>
<path d="M132.339 35.3387C134.391 40.4537 140.027 40.9495 144.72 40.2671C149.295 39.6022 152.42 37.4617 153.399 32.8716C154.59 27.3074 153.977 21.4283 148.989 17.8472C145.593 15.4034 140.174 14.8144 136.348 17.0482C130.493 20.466 130.193 29.967 132.339 35.3387Z" stroke="#808080" stroke-width="2"/>
<path d="M36.3954 58.7909L26.7792 58.9075C26.5316 58.9075 26.4078 59.0358 26.4078 59.275L26.3193 72.1413C26.3193 72.3862 26.4431 72.5087 26.6908 72.5146L36.4897 72.6487C36.7078 72.6487 36.814 72.7595 36.814 72.9753V100.65C36.814 100.977 37.0852 101.245 37.4153 101.245L54.9555 101.28C55.2798 101.28 55.4449 101.117 55.439 100.796C55.2975 92.3565 55.2267 83.8061 55.2326 75.1566C55.2326 74.3226 55.3152 73.6227 55.4803 73.057C55.5392 72.8587 55.6689 72.7304 55.8753 72.6779C59.4069 71.7388 60.2382 73.5352 62.2959 76.3173C68.3627 84.5235 74.3942 92.6539 80.3844 100.714C80.6497 101.076 81.0093 101.257 81.4633 101.257H98.2488C98.9445 101.257 99.0743 100.988 98.638 100.446L71.8236 67.3062C71.6998 67.1487 71.6939 66.9913 71.8177 66.8338L99.4339 30.4919C99.5813 30.3053 99.5341 30.212 99.2924 30.2061L81.5577 30.0778C81.3336 30.0778 81.1567 30.1711 81.0329 30.352C74.86 39.2464 68.6811 48.1467 62.5022 57.0411C60.8219 59.4674 58.0214 59.0475 55.551 58.4817C55.3623 58.4409 55.2267 58.2718 55.2267 58.0735L55.2621 30.2411C55.2621 30.1536 55.1914 30.0778 55.097 30.0778C55.0911 30.0778 55.0793 30.0778 55.0734 30.0778C53.57 30.2703 52.0489 30.2878 50.5218 30.1187C48.3934 29.8854 43.9244 29.9612 37.1147 30.3403C36.9083 30.3519 36.8022 30.4628 36.8022 30.6669L36.8199 58.3651C36.8199 58.5984 36.6312 58.785 36.3954 58.7909Z" stroke="#808080" stroke-width="2"/>
<path d="M241.536 62.5819C247.986 60.7389 250.002 59.6891 251.989 53.32C253.634 48.0359 250.503 41.5677 246.441 38.4007C243.735 36.2894 240.386 34.4346 236.395 32.8366C234.862 32.2242 233.034 32.405 231.413 32.4983C228.418 32.6733 226.484 31.011 223.595 30.7369C215.553 29.967 207.641 30.0837 199.54 30.107C199.345 30.107 199.245 30.2061 199.245 30.3986V58.2193C199.245 58.5284 198.991 58.7792 198.679 58.785L187.017 58.925C186.698 58.925 186.539 59.0883 186.539 59.4033L186.504 72.1238C186.504 72.3804 186.634 72.5087 186.893 72.5087L198.95 72.5962C199.18 72.5962 199.292 72.707 199.286 72.9345L199.215 101.093C199.215 101.187 199.292 101.263 199.392 101.263C209.256 101.245 219.132 101.251 229.025 101.268C230.487 101.268 231.932 101.082 233.364 100.697C237.833 99.4954 242.255 98.3756 246.624 97.3315C247.361 97.1566 248.033 96.8066 248.587 96.2992C253.681 91.6683 257.82 87.7722 257.213 80.575C256.382 70.7182 250.138 66.4838 241.512 62.9727C241.141 62.8211 241.153 62.6928 241.536 62.5819Z" stroke="#808080" stroke-width="2"/>
<path d="M217.775 44.3614L217.852 58.8259C217.852 58.8958 217.905 58.9483 217.976 58.9483L223.783 58.9192C229.544 58.89 234.201 55.9271 234.184 52.3052L234.172 50.7188C234.154 47.0968 229.467 44.1806 223.707 44.2098L217.899 44.239C217.834 44.239 217.781 44.2973 217.781 44.3614" stroke="#808080" stroke-width="2"/>
<path d="M217.816 73.1561V89.2886C217.816 89.5336 217.94 89.6619 218.188 89.6794C222.05 89.9535 225.87 89.6619 229.638 88.8162C236.2 87.3464 239.531 85.9408 238.611 78.2303C238.387 76.3348 238.381 75.4074 236.571 74.69C234.738 73.961 232.981 73.4244 231.3 73.0803C227.468 72.2871 222.456 72.6779 218.3 72.6779C218.035 72.6779 217.816 72.8937 217.816 73.1561Z" stroke="#808080" stroke-width="2"/>
<path d="M28.8251 122.434C18.979 115.511 10.2532 104.481 5.507 94.1173C3.91512 90.6411 2.90103 86.7917 1.8044 82.9657C0.719559 79.1921 0.530892 75.2552 0.188932 71.3825C-0.294528 65.865 0.212515 59.0585 1.10279 54.4101C4.02124 39.1933 11.6328 27.3068 22.8113 16.8959C33.0996 7.31909 44.9739 2.23322 59.0709 1.03174C59.5249 0.990913 61.3821 0.763448 64.6484 0.337681C67.1541 0.0110651 69.6893 0.203535 71.7529 0.203535C114.115 0.203535 156.476 0.226865 198.838 0.261859C206.915 0.261859 215.5 -0.490524 223.495 0.541816C235.033 2.04075 246.2 4.54869 255.374 11.1685C268.327 20.5179 279.947 35.688 283.267 51.5347C285.277 61.1466 285.501 68.7404 284.151 78.0781C281.758 94.6305 273.356 106.791 261.299 118.17C252.485 126.481 241.218 131.363 229.202 132.827C224.568 133.387 220.099 134.157 215.47 133.97C211.39 133.807 207.252 133.48 203.26 133.48H82.3183C78.0555 133.48 73.9167 133.714 69.707 133.953C65.6507 134.18 61.5236 133.387 57.4908 132.973C46.8252 131.882 37.6571 128.645 28.8251 122.434ZM91.0618 17.8583C86.6871 15.5953 82.0176 14.0439 77.0473 13.1982C58.5874 10.0662 40.9824 14.0789 26.9738 26.7819C13.1303 39.3333 10.0114 59.3443 12.1045 76.8708C13.2718 86.6226 17.2751 97.4417 24.2676 104.75C39.5851 120.766 61.5236 125.607 82.7428 119.716C93.09 116.84 100.536 110.629 107.252 102.563C121.679 85.217 124.432 61.6948 114.121 41.8762C109.321 32.6552 100.389 22.6934 91.0618 17.8583ZM176.245 33.6467C161.016 53.2669 161.028 81.0351 176.257 100.603C182.536 108.663 190.165 115.796 199.864 119.033C222.652 126.633 251.087 120.217 264.895 99.4306C273.645 86.2551 274.771 69.4053 272.501 54.4509C268.946 31.0396 248.841 14.5105 225.924 12.475C210.689 11.1218 195.094 14.353 184.045 24.9039C181.422 27.4118 178.822 30.328 176.245 33.6467ZM132.339 35.3381C134.39 40.4531 140.027 40.9489 144.72 40.2665C149.295 39.6016 152.42 37.4611 153.399 32.871C154.59 27.3068 153.977 21.4277 148.989 17.8466C145.593 15.4028 140.174 14.8138 136.348 17.0476C130.493 20.4654 130.193 29.9664 132.339 35.3381Z" fill="black"/>
<path d="M91.0617 17.8589C100.389 22.694 109.321 32.6558 114.12 41.8768C124.432 61.6954 121.679 85.2176 107.252 102.563C100.536 110.629 93.0899 116.841 82.7427 119.716C61.5235 125.607 39.585 120.766 24.2675 104.75C17.275 97.4424 13.2717 86.6232 12.1044 76.8714C10.0113 59.345 13.1302 39.3339 26.9737 26.7825C40.9823 14.0795 58.5873 10.0668 77.0472 13.1988C82.0175 14.0445 86.687 15.5959 91.0617 17.8589ZM36.3953 58.7909L26.7792 58.9075C26.5315 58.9075 26.4077 59.0358 26.4077 59.275L26.3193 72.1413C26.3193 72.3863 26.4431 72.5087 26.6907 72.5146L36.4896 72.6487C36.7078 72.6487 36.8139 72.7595 36.8139 72.9753V100.65C36.8139 100.977 37.0851 101.245 37.4153 101.245L54.9555 101.28C55.2797 101.28 55.4448 101.117 55.4389 100.796C55.2974 92.3565 55.2267 83.8061 55.2326 75.1567C55.2326 74.3226 55.3151 73.6227 55.4802 73.057C55.5392 72.8587 55.6689 72.7304 55.8752 72.6779C59.4068 71.7389 60.2382 73.5352 62.2958 76.3173C68.3627 84.5235 74.3941 92.6539 80.3843 100.714C80.6496 101.076 81.0093 101.257 81.4633 101.257H98.2488C98.9445 101.257 99.0742 100.988 98.6379 100.446L71.8235 67.3062C71.6997 67.1487 71.6938 66.9913 71.8176 66.8338L99.4338 30.4919C99.5812 30.3053 99.5341 30.212 99.2923 30.2061L81.5576 30.0778C81.3335 30.0778 81.1567 30.1712 81.0329 30.352C74.8599 39.2464 68.681 48.1467 62.5022 57.0411C60.8218 59.4674 58.0213 59.0475 55.5509 58.4817C55.3623 58.4409 55.2267 58.2718 55.2267 58.0735L55.2621 30.2411C55.2621 30.1537 55.1913 30.0778 55.097 30.0778C55.0911 30.0778 55.0793 30.0778 55.0734 30.0778C53.5699 30.2703 52.0488 30.2878 50.5218 30.1187C48.3934 29.8854 43.9243 29.9612 37.1146 30.3403C36.9082 30.352 36.8021 30.4628 36.8021 30.6669L36.8198 58.3651C36.8198 58.5984 36.6311 58.785 36.3953 58.7909Z" fill="white"/>
<path d="M184.045 24.9045C195.094 14.3536 210.689 11.1224 225.923 12.4756C248.841 14.5111 268.946 31.0402 272.501 54.4515C274.771 69.4059 273.645 86.2558 264.895 99.4312C251.087 120.218 222.651 126.634 199.864 119.034C190.165 115.797 182.536 108.664 176.257 100.604C161.028 81.0357 161.016 53.2675 176.245 33.6473C178.821 30.3286 181.422 27.4124 184.045 24.9045ZM241.536 62.5819C247.986 60.7389 250.002 59.689 251.989 53.32C253.634 48.0359 250.503 41.5677 246.441 38.4007C243.735 36.2894 240.386 34.4346 236.395 32.8366C234.862 32.2242 233.034 32.405 231.413 32.4983C228.417 32.6732 226.484 31.011 223.595 30.7369C215.553 29.967 207.64 30.0837 199.54 30.107C199.345 30.107 199.245 30.2061 199.245 30.3986V58.2193C199.245 58.5284 198.991 58.7792 198.679 58.785L187.017 58.925C186.698 58.925 186.539 59.0883 186.539 59.4033L186.504 72.1238C186.504 72.3804 186.633 72.5087 186.893 72.5087L198.95 72.5962C199.18 72.5962 199.292 72.707 199.286 72.9345L199.215 101.093C199.215 101.187 199.292 101.263 199.392 101.263C209.256 101.245 219.131 101.251 229.025 101.268C230.487 101.268 231.931 101.082 233.364 100.697C237.833 99.4954 242.255 98.3755 246.624 97.3315C247.361 97.1566 248.033 96.8066 248.587 96.2992C253.681 91.6683 257.82 87.7722 257.213 80.575C256.381 70.7182 250.138 66.4838 241.512 62.9727C241.141 62.8211 241.152 62.6928 241.536 62.5819Z" fill="white"/>
<path d="M144.72 40.2671C140.027 40.9495 134.391 40.4537 132.339 35.3387C130.193 29.967 130.493 20.466 136.348 17.0482C140.174 14.8144 145.593 15.4034 148.989 17.8472C153.977 21.4283 154.59 27.3074 153.399 32.8716C152.42 37.4617 149.295 39.6022 144.72 40.2671Z" fill="white"/>
<path d="M36.8199 58.3651L36.8022 30.6669C36.8022 30.4628 36.9083 30.3519 37.1147 30.3403C43.9244 29.9612 48.3934 29.8854 50.5218 30.1187C52.0489 30.2878 53.57 30.2703 55.0734 30.0778C55.1619 30.0662 55.2503 30.1245 55.2621 30.2178C55.2621 30.2236 55.2621 30.2353 55.2621 30.2411L55.2267 58.0735C55.2267 58.2718 55.3623 58.4409 55.551 58.4817C58.0214 59.0475 60.8219 59.4674 62.5022 57.0411C68.6811 48.1467 74.86 39.2464 81.0329 30.352C81.1567 30.1711 81.3336 30.0778 81.5577 30.0778L99.2924 30.2061C99.5341 30.2061 99.5813 30.3053 99.4339 30.4919L71.8177 66.8338C71.6939 66.9913 71.6998 67.1487 71.8236 67.3062L98.638 100.446C99.0742 100.988 98.9445 101.257 98.2488 101.257H81.4633C81.0093 101.257 80.6497 101.076 80.3844 100.714C74.3942 92.6539 68.3627 84.5235 62.2959 76.3173C60.2382 73.5352 59.4069 71.7388 55.8753 72.6779C55.6689 72.7304 55.5392 72.8587 55.4803 73.057C55.3152 73.6227 55.2326 74.3226 55.2326 75.1567C55.2326 83.8061 55.2975 92.3565 55.439 100.796C55.439 101.117 55.2798 101.28 54.9555 101.28L37.4153 101.245C37.0852 101.245 36.814 100.977 36.814 100.65V72.9753C36.814 72.7595 36.7078 72.6545 36.4897 72.6487L26.6908 72.5146C26.4431 72.5146 26.3193 72.3862 26.3193 72.1413L26.4078 59.275C26.4078 59.0358 26.5316 58.9133 26.7792 58.9075L36.3954 58.7909C36.6312 58.7909 36.8199 58.5984 36.8199 58.3651Z" fill="black"/>
<path d="M241.512 62.9727C250.138 66.4838 256.382 70.7182 257.213 80.575C257.82 87.7722 254.342 92.164 248.587 96.2992C248.033 96.8066 244.755 98.498 244.018 98.673C240.274 99.577 244.519 99.0346 235.528 100.569C234.095 100.953 230.487 101.274 229.025 101.274C219.132 101.257 209.256 101.251 199.392 101.268C199.292 101.268 199.215 101.193 199.215 101.099L199.286 72.9403C199.286 72.7129 199.18 72.6021 198.95 72.6021L186.893 72.5146C186.634 72.5146 186.504 72.3862 186.504 72.1296L186.539 59.4091C186.539 59.0942 186.698 58.9367 187.017 58.9308L198.679 58.7909C198.991 58.7909 199.245 58.5342 199.245 58.2251V30.4044C199.245 30.212 199.345 30.1128 199.54 30.1128C207.641 30.0895 215.535 30.2003 223.595 30.7427C226.708 30.9527 227.952 30.871 230.912 31.3668C234.119 31.9034 234.862 32.23 236.395 32.8424C240.386 34.4405 243.735 36.2952 246.441 38.4065C250.503 41.5735 253.634 48.0417 251.989 53.3259C250.002 59.6949 247.986 60.7447 241.536 62.5878C241.153 62.6986 241.141 62.8269 241.512 62.9785V62.9727ZM217.776 44.3614L217.852 58.8259C217.852 58.8958 217.905 58.9483 217.976 58.9483L223.783 58.9192C229.544 58.89 234.201 55.9271 234.184 52.3052L234.172 50.7188C234.154 47.0968 229.467 44.1806 223.707 44.2098L217.899 44.239C217.835 44.239 217.781 44.2973 217.781 44.3614H217.776ZM217.817 73.1561V89.2886C217.817 89.5336 217.941 89.6619 218.188 89.6794C222.05 89.9535 225.871 89.6619 229.638 88.8162C236.2 87.3464 239.531 85.9408 238.612 78.2303C238.387 76.3348 238.382 75.4074 236.572 74.6901C234.738 73.961 232.981 73.4244 231.301 73.0803C227.468 72.2871 222.457 72.6779 218.3 72.6779C218.035 72.6779 217.817 72.8937 217.817 73.1561Z" fill="black"/>
<path d="M217.775 44.3614C217.775 44.2973 217.828 44.2448 217.893 44.239L223.701 44.2098C229.467 44.1806 234.154 47.091 234.172 50.7188L234.184 52.3052C234.201 55.9271 229.544 58.89 223.783 58.9192L217.976 58.9483C217.905 58.9483 217.852 58.8958 217.852 58.8259L217.775 44.3614Z" fill="white"/>
<path d="M217.816 73.1561C217.816 72.8937 218.035 72.6779 218.3 72.6779C222.456 72.6779 227.468 72.2871 231.3 73.0803C232.981 73.4244 234.738 73.961 236.571 74.69C238.381 75.4074 238.387 76.3348 238.611 78.2303C239.531 85.9408 236.2 87.3464 229.638 88.8162C225.87 89.6619 222.05 89.9535 218.188 89.6794C217.94 89.6619 217.816 89.5336 217.816 89.2886V73.1561Z" fill="white"/>
</g>
<rect x="1.5" y="1.5" width="282" height="131" rx="65.5" stroke="white" stroke-opacity="0.12" stroke-width="3"/>
<defs>
<clipPath id="clip0_134_2285">
<rect width="285" height="134" rx="67" fill="white"/>
</clipPath>
</defs>
</svg>
